<?xml version="1.0" encoding="UTF-8"?>
<svg id="_레이어_2" data-name="레이어 2" xmlns="http://www.w3.org/2000/svg" width="27.32mm" height="5.3mm" viewBox="0 0 77.44 15.04">
  <defs>
    <style>
      .cls-1 {
        fill: #e24229;
      }
    </style>
  </defs>
  <g id="_레이어_1-2" data-name="레이어 1">
    <path class="cls-1" d="M21.05,1.65c0,.91.74,1.65,1.65,1.65h7.08v2.56h-7.08c-.91,0-1.65.74-1.65,1.65v5.86c0,.91.74,1.65,1.65,1.65h10.38v-3.31h-8.73v-2.56h8.73V0h-10.38c-.91,0-1.65.74-1.65,1.65"/>
    <rect class="cls-1" x="35.59" y="0" width="3.26" height="15.04"/>
    <g>
      <path class="cls-1" d="M0,13.41c0,.9.75,1.63,1.67,1.63h16.38v-3.26H1.67c-.92,0-1.67.73-1.67,1.63"/>
      <path class="cls-1" d="M5.51,3.26h7.27v2.51h-7.27v-2.51ZM0,1.67c0,.92.75,1.67,1.67,1.67h.62v2.59h-.62c-.92,0-1.67.75-1.67,1.67s.75,1.67,1.67,1.67h16.37v-3.34h-1.81v-2.59h1.81V0H1.67C.75,0,0,.75,0,1.67"/>
      <path class="cls-1" d="M41.85,13.41c0,.9.75,1.63,1.66,1.63h10.36v-3.26h-10.36c-.92,0-1.66.73-1.66,1.63"/>
    </g>
    <rect class="cls-1" x="56.64" y="0" width="3.26" height="15.04"/>
    <g>
      <path class="cls-1" d="M41.85,7.39c0,.9.75,1.63,1.66,1.63h10.36v-3.26h-10.36c-.92,0-1.66.73-1.66,1.63"/>
      <path class="cls-1" d="M41.85,1.63c0,.9.75,1.63,1.66,1.63h10.36V0h-10.36c-.92,0-1.66.73-1.66,1.63"/>
      <path class="cls-1" d="M73.68,0c-2.08,0-3.76,1.68-3.76,3.76s1.68,3.76,3.76,3.76,3.76-1.68,3.76-3.76-1.68-3.76-3.76-3.76"/>
      <path class="cls-1" d="M65.91,11.03c-1.11,0-2,.9-2,2s.9,2.01,2,2.01,2.01-.9,2.01-2.01-.9-2-2.01-2"/>
    </g>
  </g>
</svg>