<?xml version="1.0" encoding="UTF-8"?>
<svg id="_레이어_2" data-name="레이어 2" xmlns="http://www.w3.org/2000/svg" width="17mm" height="10.47mm" viewBox="0 0 48.19 29.68">
  <defs>
    <style>
      .cls-1 {
        fill: #ff5a00;
      }
    </style>
  </defs>
  <g id="_레이어_1-2" data-name="레이어 1">
    <g>
      <path class="cls-1" d="M24.09,29.68C10.81,29.68,0,23.02,0,14.84S10.81,0,24.09,0s24.1,6.66,24.1,14.84-10.81,14.84-24.1,14.84M24.09.5C11.07.5.48,6.93.48,14.84s10.6,14.34,23.62,14.34,23.62-6.44,23.62-14.34S37.12.5,24.09.5"/>
      <path class="cls-1" d="M19.24,20.08c0,.37-.13.67-.4.91-.27.24-.62.36-1.04.36s-.78-.12-1.04-.36c-.27-.24-.4-.54-.4-.91s.13-.68.4-.92c.27-.24.62-.35,1.04-.35s.77.12,1.04.35c.27.24.4.54.4.92M18.44,20.08c0-.19-.06-.35-.2-.47-.13-.12-.28-.18-.45-.18s-.33.06-.46.18c-.13.12-.2.27-.2.47s.06.34.2.46c.13.12.28.18.46.18s.32-.06.45-.18c.13-.12.2-.27.2-.46M20.53,22.75c0,.3-.15.45-.45.45h-1.94c-.05,0-.08.03-.08.08v.2c0,.07.04.1.11.1h2.23c.11,0,.19.03.25.09.05.05.07.12.07.2s-.03.15-.08.21c-.06.06-.14.09-.24.09h-2.55c-.39,0-.59-.19-.59-.56v-.53c0-.28.14-.42.42-.42h1.96c.06,0,.09-.03.09-.09v-.21s-.02-.07-.07-.07h-2.37v-.58h2.86c.24,0,.37.12.37.36v.68ZM20.53,20.31v.79c0,.12-.04.22-.12.28-.08.07-.17.1-.27.1-.11,0-.2-.03-.28-.1-.08-.07-.12-.16-.12-.28v-2.26h.78v.84h.78v.63h-.78Z"/>
      <path class="cls-1" d="M21.49,21.57v-.58h4.66c.1,0,.18.03.24.09.05.05.07.12.07.19,0,.08-.02.15-.07.2-.06.06-.14.09-.24.09h-4.66ZM25.75,19.43h-1.16v.43c0,.13.07.2.21.2h.75c.1,0,.18.03.24.09.06.06.09.12.09.2s-.03.14-.09.2-.13.09-.24.09h-2.82c-.23,0-.4-.05-.49-.14-.09-.09-.14-.26-.14-.49v-1.15h1.53v.57h-.75v.43c0,.13.07.2.21.2h.76v-1.2h1.91v.57ZM25.7,22.92c0,.16-.03.26-.1.31-.06.05-.18.08-.34.08h-2.22c-.05,0-.08.02-.08.07v.23s.03.07.08.07h2.54c.1,0,.18.03.23.08.06.06.08.12.08.19s-.03.14-.08.19c-.06.05-.13.08-.23.08h-2.87c-.2,0-.33-.03-.41-.09-.08-.06-.12-.19-.12-.38v-.57c0-.15.03-.25.08-.29.05-.05.16-.08.31-.08h2.25c.06,0,.09-.03.09-.09v-.19c0-.05-.03-.08-.08-.08h-2.61v-.54h3.13c.23,0,.35.1.35.31v.7Z"/>
      <path class="cls-1" d="M26.7,22.14v-.6h2.06v-.55h-1.58v-.59h.69v-.96h-.68v-.59h3.91v.59h-.68v.96h.42c.1,0,.18.03.24.09.05.06.08.13.08.21s-.03.15-.08.21c-.06.06-.14.09-.24.09h-1.31v.55h1.82c.1,0,.17.03.23.09.06.06.08.13.08.21s-.03.15-.08.21c-.05.06-.13.09-.23.09h-4.65ZM30.72,23.53c.1,0,.18.03.24.09.06.06.08.13.08.21,0,.09-.03.16-.09.23-.06.06-.14.09-.24.09h-2.74c-.23,0-.4-.05-.49-.14-.09-.09-.14-.26-.14-.5v-.97h.79v.79c0,.13.07.2.2.2h2.38ZM28.64,20.41h1.02v-.96h-1.02v.96Z"/>
      <polygon class="cls-1" points="24.99 16.58 24.34 16.58 27.56 7.62 28.16 7.62 24.99 16.58"/>
      <path class="cls-1" d="M30.95,7.63v7.95c0,.67-.3,1.01-.9,1.01s-.89-.34-.89-1.01v-7.95h1.79ZM36.23,7.63l-3.34,4.19,2.69,3.33c.15.18.22.36.22.54,0,.26-.09.48-.26.64-.18.16-.4.25-.66.25-.32,0-.55-.1-.7-.31l-2.8-3.78c-.13-.18-.2-.38-.2-.6s.06-.4.19-.57l2.79-3.7h2.08Z"/>
      <path class="cls-1" d="M42.71,7.63v1.48h-2.33v6.47c0,.67-.3,1.01-.9,1.01s-.9-.34-.9-1.01v-6.47h-2.33v-1.48h6.47Z"/>
      <path class="cls-1" d="M9.79,9.45c-.61-.38-1.23-.57-1.88-.57-.92,0-1.38.29-1.38.86,0,.28.13.53.4.74.09.07.35.21.78.44l.6.32c.55.3.93.52,1.15.67.41.29.71.6.88.94.18.34.26.73.26,1.17,0,.86-.35,1.53-1.05,1.99-.6.4-1.35.61-2.24.61-.72,0-1.38-.11-1.97-.33-.42-.15-.63-.42-.63-.8,0-.48.27-.72.81-.72.16,0,.37.05.64.15.41.14.82.21,1.25.21.93,0,1.4-.32,1.4-.95,0-.31-.18-.58-.53-.8-.21-.13-.59-.35-1.16-.66l-.42-.22c-.68-.35-1.16-.69-1.43-1-.39-.43-.58-.96-.58-1.59,0-.86.34-1.49,1.02-1.9.58-.36,1.31-.53,2.2-.53,1.01,0,1.88.2,2.63.6l-.74,1.37Z"/>
      <path class="cls-1" d="M13.66,7.62v7.95c0,.67-.3,1.01-.9,1.01s-.89-.34-.89-1.01v-7.95h1.79ZM18.95,7.62l-3.34,4.2,2.69,3.33c.15.18.22.36.22.54,0,.27-.09.48-.27.64-.18.16-.4.25-.66.25-.32,0-.56-.1-.7-.31l-2.8-3.78c-.13-.18-.2-.38-.2-.6s.06-.4.19-.57l2.79-3.7h2.09Z"/>
      <path class="cls-1" d="M25.42,7.62v1.48h-2.33v6.47c0,.67-.3,1.01-.9,1.01s-.9-.34-.9-1.01v-6.47h-2.33v-1.48h6.47Z"/>
    </g>
  </g>
</svg>