<?xml version="1.0" encoding="UTF-8"?>
<svg id="_레이어_2" data-name="레이어 2" xmlns="http://www.w3.org/2000/svg" width="1.5mm" height="1.45mm" viewBox="0 0 4.25 4.1">
  <defs>
    <style>
      .cls-1 {
        fill: #ff5a00;
      }
    </style>
  </defs>
  <g id="_레이어_1-2" data-name="레이어 1">
    <path class="cls-1" d="M1.27,4.1l-.88-.69c.28-.32.57-.62.88-.91.12-.12.2-.19.23-.22-.1-.02-.38-.08-.84-.19-.33-.08-.55-.14-.66-.18L.35.87c.51.21.97.44,1.37.69-.09-.64-.14-1.15-.14-1.56h1.04c0,.29-.05.81-.16,1.57.08-.03.25-.11.5-.23.35-.16.68-.3.97-.41l.31,1.06c-.43.1-.94.19-1.51.29l.7.79c.14.16.25.29.33.39l-.9.59-.79-1.31c-.24.42-.51.87-.82,1.35"/>
  </g>
</svg>